{"title":"Machete.2010.BRRip.720p.H264.Feel-Free","uid":5882730,"size":1848525760,"categoryP":"video","categoryS":"hd___movies","magnet":"?xt=urn:btih:b3f51a2e4cc0f8038fc87c5dd520bbab6d553f3d&amp;dn=Machete.2010.BRRip.720p.H264.Feel-Free&amp;tr=udp%3A%2F%2Ftracker.openbittorrent.com%3A80&amp;tr=udp%3A%2F%2Fopen.demonii.com%3A1337&amp;tr=udp%3A%2F%2Ftracker.coppersurfer.tk%3A6969&amp;tr=udp%3A%2F%2Fexodus.desync.com%3A6969","seeders":1,"leechers":0,"uploader":"neon","files":-1,"time":1286892095,"description":"Genre:Action | Adventure | Crime | Thriller\nLanguage: English\nIMDB:http://www.imdb.com/title/tt0985694/\nSource:720p.DTS.x264-BECKS\n\nGeneral\nComplete name :Machete.2010.BRRip.720p.H264.Feel-Free\nFormat : MPEG-4\nFormat profile : Base Media\nCodec ID : isom\nFile size : 1.72 GiB\nDuration : 1h 44mn\nOverall bit rate : 2 351 Kbps\nVideo #1\nCodec ID : avc1\nCodec ID/Info : Advanced Video Coding\nDuration : 1h 44mn\nBit rate mode : Variable\nBit rate : 2 029 Kbps\nWidth : 1 280 pixels\nHeight : 712 pixels\nDisplay aspect ratio : 16:9\nFrame rate mode : Constant\nFrame rate : 23.976 fps\nResolution : 24 bits\nColorimetry : 4:2:0\nScan type : Progressive\nBits/(Pixel*Frame) : 0.093\nStream size : 1.49 GiB (86%)\nAudio #2\nID : 2\nFormat : AAC\nFormat/Info : Advanced Audio Codec\nFormat version : Version 4\nFormat profile : LC\nFormat settings, SBR : No\nCodec ID : 40\nDuration : 1h 44mn\nBit rate mode : Variable\nBit rate : 320 Kbps\nChannel(s) : 6 channels\nChannel positions : Front: L C R, Rear: L R, LFE\nSampling rate : 48.0 KHz\nResolution : 16 bits\nStream size : 238 MiB (13%)\n\nPlot\nAfter being betrayed by the organization who hired him, an ex-Federale launches a brutal rampage of revenge against his former boss","torrent":{"xt":"urn:btih:b3f51a2e4cc0f8038fc87c5dd520bbab6d553f3d","amp;dn":"Machete.2010.BRRip.720p.H264.Feel-Free","amp;tr":["udp%3A%2F%2Ftracker.openbittorrent.com%3A80","udp%3A%2F%2Fopen.demonii.com%3A1337","udp%3A%2F%2Ftracker.coppersurfer.tk%3A6969","udp%3A%2F%2Fexodus.desync.com%3A6969"],"infoHash":"b3f51a2e4cc0f8038fc87c5dd520bbab6d553f3d","infoHashBuffer":{"type":"Buffer","data":[179,245,26,46,76,192,248,3,143,200,124,93,213,32,187,171,109,85,63,61]},"announce":[],"urlList":[]}}